<?xml version="1.0" encoding="UTF-8"?>
<svg xmlns="http://www.w3.org/2000/svg" xmlns:xlink="http://www.w3.org/1999/xlink" width="724pt" height="561pt" viewBox="0 0 724 561" version="1.1">
<defs>
<linearGradient id="linear0" gradientUnits="userSpaceOnUse" x1="0" y1="0" x2="1" y2="1" gradientTransform="matrix(721.09375,0,0,482.9375,0.90625,3)">
<stop offset="0" style="stop-color:rgb(79.607844%,80.784315%,81.568629%);stop-opacity:1;"/>
<stop offset="1" style="stop-color:rgb(51.764709%,51.372552%,54.509807%);stop-opacity:1;"/>
</linearGradient>
<linearGradient id="linear1" gradientUnits="userSpaceOnUse" x1="0" y1="0" x2="1" y2="1" gradientTransform="matrix(398,0,0,406.125,298,152.9375)">
<stop offset="0" style="stop-color:rgb(15.294118%,42.745098%,76.47059%);stop-opacity:1;"/>
<stop offset="1" style="stop-color:rgb(8.627451%,36.078432%,66.666669%);stop-opacity:1;"/>
</linearGradient>
</defs>
<g id="surface281">
<path style=" stroke:none;fill-rule:evenodd;fill:url(#linear0);" d="M 361.453125 485.9375 C 162.328125 485.9375 0.90625 377.828125 0.90625 244.46875 C 0.90625 111.109375 162.328125 3 361.453125 3 C 560.578125 3 722 111.109375 722 244.46875 C 722 377.828125 560.578125 485.9375 361.453125 485.9375 Z M 416.640625 97.40625 C 265.289063 97.40625 142.59375 171.3125 142.59375 262.484375 C 142.59375 353.652344 265.289063 427.5625 416.640625 427.5625 C 567.992188 427.5625 679.6875 377.03125 679.6875 262.484375 C 679.6875 147.972656 567.992188 97.40625 416.640625 97.40625 Z M 416.640625 97.40625 "/>
<path style=" stroke:none;fill-rule:evenodd;fill:url(#linear1);" d="M 550 377 C 550 377 571.820313 383.585938 584.5 390 C 588.898438 392.226563 596.511719 396.667969 602 402.5 C 607.378906 408.210938 610 414 610 414 L 696 559 L 557 559.0625 L 492 437 C 492 437 478.691406 414.132813 470.5 407.5 C 463.667969 401.96875 460.753906 400 454 400 C 449.296875 400 420.972656 400 420.972656 400 L 421 558.972656 L 298 559.027344 L 298 152.9375 L 545 152.9375 C 545 152.9375 657.5 154.96875 657.5 262 C 657.5 369.03125 550 377 550 377 Z M 496.5 241.023438 L 422.035156 240.976563 L 422 310.027344 L 496.5 310.003906 C 496.5 310.003906 531 309.894531 531 274.878906 C 531 239.15625 496.5 241.023438 496.5 241.023438 Z M 496.5 241.023438 "/>
</g>
</svg>
