<svg height='300px' width='300px'  fill="#000000" xmlns="http://www.w3.org/2000/svg" xmlns:xlink="http://www.w3.org/1999/xlink" version="1.1" x="0px" y="0px" viewBox="0 0 100 100" enable-background="new 0 0 100 100" xml:space="preserve"><g><path d="M89.637,77.426c-0.142,0-0.285-0.02-0.429-0.061c-0.36-0.1-8.858-2.53-13.764-8.18c-0.741-0.854-1.392-1.702-1.932-2.523   c-0.483-0.732-0.28-1.722,0.452-2.202c0.736-0.485,1.721-0.281,2.205,0.451c0.463,0.704,1.028,1.44,1.679,2.19   c4.269,4.918,12.14,7.181,12.22,7.201c0.845,0.238,1.337,1.117,1.1,1.963C90.971,76.967,90.333,77.426,89.637,77.426L89.637,77.426   z"></path><path d="M88.878,68.645c-0.858,0-1.563-0.683-1.59-1.544c-0.002-0.022-0.072-2.264-0.535-3.829   c-0.418-1.441-1.187-2.628-1.194-2.638c-0.481-0.735-0.276-1.72,0.458-2.203c0.731-0.484,1.717-0.278,2.198,0.453   c0.042,0.064,1.035,1.58,1.592,3.491c0.578,1.96,0.659,4.524,0.66,4.632c0.026,0.879-0.664,1.61-1.543,1.637   C88.908,68.645,88.893,68.645,88.878,68.645L88.878,68.645z"></path><path d="M98.332,43.3l-9.534-18.685l9.158-4.172c0.799-0.364,1.152-1.307,0.787-2.107c-0.364-0.8-1.31-1.15-2.106-0.788   l-9.326,4.25c-1.449-2.335-4.451-3.225-6.939-1.956c-2.349,1.198-3.415,3.895-2.659,6.329l-6.278,2.86   c-0.8,0.364-1.152,1.307-0.788,2.106c0.268,0.585,0.845,0.932,1.447,0.932c0.224,0,0.446-0.046,0.66-0.145l6.321-2.88l6.807,13.34   l-21.69,6.231c-2.235,5.731-7.808,9.811-14.326,9.811c-6.667,0-12.338-4.277-14.459-10.226l-15.832-7.125l15.365-6.524   c0.542-0.23,1.011-0.558,1.431-0.929c1.09,1.267,2.07,2.547,2.916,3.728c-0.918,1.7-1.439,3.644-1.439,5.71   c0,6.647,5.384,12.021,12.018,12.021c6.643,0,12.04-5.374,12.04-12.021c0-2.959-1.075-5.665-2.85-7.76   c1.131-1.759,2.479-3.611,3.976-5.149c4.208-4.329,9.713-6.815,9.769-6.839c0.802-0.358,1.162-1.298,0.806-2.1   c-0.359-0.8-1.297-1.164-2.099-0.806c-0.248,0.109-6.106,2.745-10.757,7.528c-1.538,1.581-2.916,3.426-4.083,5.202   c-0.441-0.301-0.904-0.566-1.382-0.809c0.933-2.596,2.18-5.717,3.781-9c1.842-3.775,4.03-6.623,4.053-6.651   c0.538-0.694,0.411-1.693-0.282-2.231c-0.693-0.536-1.693-0.413-2.231,0.283c-0.099,0.126-2.407,3.122-4.397,7.205   c-1.674,3.429-2.967,6.656-3.93,9.338c-0.626-0.127-1.272-0.192-1.929-0.218c0.163-1.273,0.356-2.594,0.595-3.957   c0.723-4.137,2.04-7.478,2.051-7.511c0.325-0.817-0.073-1.74-0.889-2.065c-0.812-0.327-1.738,0.071-2.065,0.888   c-0.06,0.148-1.449,3.665-2.232,8.14c-0.295,1.673-0.523,3.285-0.708,4.814c-0.46,0.109-0.911,0.247-1.351,0.407   c-0.92-2.363-2.265-5.432-4.111-8.733c-1.843-3.301-3.983-5.721-4.073-5.822c-0.584-0.656-1.583-0.717-2.244-0.134   c-0.656,0.583-0.716,1.589-0.133,2.246c0.019,0.022,2.005,2.276,3.672,5.263c1.841,3.289,3.171,6.377,4.051,8.673   c-0.59,0.419-1.14,0.885-1.642,1.401c-0.939-1.263-2.019-2.604-3.206-3.917c0.22-1.034,0.143-2.141-0.3-3.188   c-1.151-2.709-4.273-3.976-6.988-2.831c-2.417-1.46-4.966-2.699-7.069-3.618c-0.794-0.35-1.742,0.014-2.094,0.819   c-0.353,0.805,0.014,1.743,0.819,2.095c1.413,0.617,3.039,1.387,4.668,2.264L4.168,36.023c-1.95,0.829-3.227,2.735-3.25,4.854   c-0.024,2.121,1.213,4.054,3.145,4.923l28.275,12.723v32.468h35.072V58.796l27.641-7.942c1.531-0.439,2.786-1.542,3.42-3.003   C99.108,46.389,99.056,44.72,98.332,43.3z"></path></g></svg>