<svg height='300px' width='300px'  fill="#000000" xmlns="http://www.w3.org/2000/svg" xmlns:xlink="http://www.w3.org/1999/xlink" version="1.1" x="0px" y="0px" viewBox="0 0 32 32" style="enable-background:new 0 0 32 32;" xml:space="preserve"><g><g><path d="M23.4963875,25.1598358C15.5865612,25.1598358,15.9963865,31,15.9963865,31h15.000001    C30.9963875,31,31.4062138,25.1598358,23.4963875,25.1598358z"></path></g><g><circle cx="23.4963875" cy="19.4845104" r="3.4845099"></circle></g><g><path d="M8.5036135,10.1598358C0.5937871,10.1598358,1.0036131,16,1.0036131,16h14.999999    C16.0036125,16,16.4134388,10.1598358,8.5036135,10.1598358z"></path></g><g><circle cx="8.5036135" cy="4.4845099" r="3.4845099"></circle></g><g><path d="M13.2949219,28.0654297h-3.2871094c-1.3808594,0-2.5043945-1.1235352-2.5043945-2.5043945V19.484375    c0-0.5522461,0.4477539-1,1-1s1,0.4477539,1,1v6.0766602c0,0.2783203,0.2260742,0.5043945,0.5043945,0.5043945h3.2871094    c0.5522461,0,1,0.4477539,1,1S13.847168,28.0654297,13.2949219,28.0654297z"></path></g><g><path d="M23.8066406,13.515625c-0.5522461,0-1-0.4477539-1-1V6.4389648c0-0.2783203-0.2260742-0.5043945-0.5043945-0.5043945    h-3.2871094c-0.5522461,0-1-0.4477539-1-1s0.4477539-1,1-1h3.2871094c1.3808594,0,2.5043945,1.1235352,2.5043945,2.5043945    v6.0766602C24.8066406,13.0678711,24.3588867,13.515625,23.8066406,13.515625z"></path></g><g><path d="M23.8066406,13.515625c-0.2651367,0-0.5195313-0.1054688-0.7070313-0.2929688l-2.6206055-2.6206055    c-0.390625-0.390625-0.390625-1.0234375,0-1.4140625s1.0234375-0.390625,1.4140625,0l1.9135742,1.9135742l1.9130859-1.9135742    c0.390625-0.390625,1.0234375-0.390625,1.4140625,0c0.390625,0.3901367,0.390625,1.0234375,0,1.4140625l-2.6201172,2.6206055    C24.3261719,13.4101563,24.0717773,13.515625,23.8066406,13.515625z"></path></g><g><path d="M11.1240234,23.1049805c-0.2558594,0-0.5117188-0.0976563-0.7070313-0.2929688L8.503418,20.8984375L6.590332,22.8120117    c-0.390625,0.390625-1.0234375,0.390625-1.4140625,0c-0.390625-0.3901367-0.390625-1.0234375,0-1.4140625l2.6201172-2.6206055    c0.375-0.375,1.0390625-0.375,1.4140625,0l2.6206055,2.6206055c0.390625,0.390625,0.390625,1.0234375,0,1.4140625    C11.6357422,23.0073242,11.3798828,23.1049805,11.1240234,23.1049805z"></path></g></g></svg>