<svg height='300px' width='300px'  fill="#000000" xmlns="http://www.w3.org/2000/svg" xmlns:xlink="http://www.w3.org/1999/xlink" version="1.1" x="0px" y="0px" viewBox="0 0 100 100" enable-background="new 0 0 100 100" xml:space="preserve"><g><rect x="44.9" y="76.8" width="10.2" height="1.7"></rect><rect x="48" y="81.1" width="3.9" height="1"></rect><path d="M71.5,68.4c2.5-0.6,4.2-4.2,5.3-7.7c2.2-0.1,4.4-0.9,6.2-2.4c-1.7,1.3-3.8,1.6-5.8,1c0.7-2.4,1.1-4.4,1.2-5   c0.2-1.3-0.2-2.2-0.6-2.7c-0.6-0.7-1.6-1.1-3-1.1c-0.4,0-0.8,0-1.2,0.1l0.1-1.5c0.6-0.6,1.4-0.9,2.2-0.9c1.6,0,3,1.2,3.2,2.8   c-0.2-2.6-2.5-4.7-5.2-4.7c0,0-0.1,0-0.1,0l0.7-11.1c1.6-4.6,2.4-8.8,2.3-11.2c-0.1-4.2-6.3-8.8-12.2-11.6c-3.6-1.2-7.4-2-11.4-2.2   c0-1.6-0.7-3.2-2.1-4.2c-2.3-1.7-5.5-1.3-7.3,1l-2.7,3.6c-4.6-2.3-10.2-0.6-12.8,3.8c1.7-2.5,5-3.4,7.8-2.1   c0.1,0.1,0.3,0.1,0.4,0.2c-3.2,1.1-6.2,2.7-9.1,4.5c-1.9,2.6-4.2,5-4.1,7.8c0.1,2.3,0.4,6.3,1.5,10.8l1.1,10.6c-0.1,0-0.1,0-0.2,0   c-2.7,0-4.9,2.1-5.2,4.7c0.2-1.6,1.6-2.8,3.2-2.8c1,0,1.9,0.5,2.5,1.2l0.2,2c-0.4,0-0.7-0.1-1.1-0.1c-1.3,0-2.3,0.4-3,1.1   c-0.4,0.5-0.8,1.3-0.6,2.7c0.1,0.5,0.4,2.1,0.9,4.1c-2,0.7-4.3,0.4-6-1c1.9,1.6,4.1,2.4,6.4,2.4c1,3.3,2.6,7,4.9,8.2   c0,4.2-0.7,13.9-5.6,16.2c0.6,0.6,1.3,1.1,2,1.7c1.9,0.3,4,0.2,5.3-1c0,0-0.4,1.9-1.3,3.8c3.5,2.2,7.4,3.9,11.6,5v-6.9l-0.1-1.8   c0.4,0.5,0.8,0.9,1.2,1.3c2.5,2.8,4,4.5,6.3,4.5h5.4c2,0,3.5-1.6,6.2-4.5c0.2-0.2,0.3-0.4,0.5-0.6l0,1.1V95c4.3-0.9,8.3-2.4,12-4.5   c-1.2-2.2-1.8-4.7-1.8-4.7c2.1,2,6.3,0.9,8.3,0.3c0.2-0.2,0.4-0.3,0.5-0.5C72.1,84.8,71.5,72.7,71.5,68.4z M73.5,52.8l0-0.5   c0.4-0.1,0.9-0.1,1.3-0.1c1.4,0,2.3,0.5,2,2c-0.3,1.6-0.6,3.2-1,4.6c-0.5-0.3-0.9-0.6-1.4-1c-1-1-1.4-2.3-1.6-3.4L73.5,52.8z    M47.2,9.4c1.1-1.4,3.1-1.7,4.5-0.6c0.5,0.4,0.9,0.9,1.1,1.4c-0.6,0-1.2,0-1.8,0c-1.5,0-3.1,0.1-4.6,0.2   C46.8,9.8,47.2,9.4,47.2,9.4z M42.9,57.9c0,1.3-1,2.3-2.3,2.3c-1.3,0-2.3-1-2.3-2.3c0-1.3,1-2.3,2.3-2.3   C41.9,55.6,42.9,56.6,42.9,57.9z M23.6,54.9c-0.3-1.5,0.7-2,2-2c0.4,0,0.8,0,1.3,0.1l0.3,0.6c-0.1,1.3-0.6,2.9-1.7,4   c-0.3,0.3-0.7,0.6-1.1,0.9C24.1,57.4,23.8,56.2,23.6,54.9z M36.1,79.5c-3.4-3.2-1.2-6.1-5-12.5c-0.1,0.1-0.2,0.2-0.3,0.3   c0,0-0.1,0-0.1,0.1c-0.1,0.1-0.2,0.1-0.2,0.2c0,0-0.1,0-0.1,0c-0.1,0-0.2,0.1-0.2,0.1c0,0-0.1,0-0.1,0c-0.1,0-0.2,0-0.2,0   c-0.1,0-0.3,0-0.4-0.1c0,0-0.1,0-0.1-0.1c-0.1,0-0.2-0.1-0.3-0.1c-0.1,0-0.1-0.1-0.2-0.1c-0.1-0.1-0.2-0.1-0.2-0.2   c-0.1,0-0.1-0.1-0.2-0.2C27.1,66,26,63.7,25,60.7c1.6-0.2,3.2-0.8,4.7-1.8l1.9,4v-4.3c0,0-5.7-25,9.1-24.2   c-2.9,7.7-7.4,21.6-7.3,32l6.8-2.6c0.7-0.3-2.4,5-2.8,16.8C36.9,80.3,36.5,79.9,36.1,79.5z M71.1,66.9c-0.1,0-0.2,0-0.3,0.1   c0,0-0.1,0-0.1,0c-0.1,0-0.1,0-0.2,0c0,0-0.1,0-0.1,0c-0.1,0-0.2-0.1-0.3-0.1c0,0-0.1,0-0.1-0.1c-0.1,0-0.1-0.1-0.2-0.1   c0,0-0.1,0-0.1-0.1c-0.1-0.1-0.2-0.2-0.3-0.3c-2.7,3-1.6,10-5,13.3c-0.5,0.4-0.9,0.8-1.3,1.2c-0.1,0.1-0.2,0.2-0.3,0.3   c-0.3,0.3-0.6,0.6-0.9,0.9c-0.1,0.1-0.2,0.2-0.3,0.3c-0.3,0.3-0.6,0.6-0.8,0.9c-0.1,0.1-0.1,0.1-0.1,0.2c-4.2,4.4-6,6.8-7.7,6.8   c-2.1,0-2.7,0-5.4,0c-2.1,0-3.6-2.4-7.6-6.7v0c0,0,0,0,0,0c-0.2-0.3-0.5-0.5-0.8-0.8c-0.1-0.1-0.2-0.2-0.2-0.3   c-0.2-0.2-0.4-0.4-0.7-0.7c3.1-5.3,12.1-20.3,19-28.2l-11.3,3c0,0,5-10.3,13.1-20.3c3.4-1.1,3.8-3.4,5.3-2.3c2.6,2,5.4,7.3,4.5,22   v1.6V63l1.8-3.9c1.4,0.9,3,1.4,4.6,1.6c-1.1,3.3-2.6,5.7-4,6.1C71.2,66.9,71.2,66.9,71.1,66.9z"></path><circle cx="61.1" cy="57.9" r="2.3"></circle></g></svg>