<svg height='300px' width='300px'  fill="#000000" xmlns="http://www.w3.org/2000/svg" xmlns:xlink="http://www.w3.org/1999/xlink" version="1.1" x="0px" y="0px" viewBox="0 0 100 100" style="enable-background:new 0 0 100 100;" xml:space="preserve"><g><circle cx="50" cy="40" r="5"></circle></g><g><path d="M68.2,86.2H31.8v0c0-7.5,6.1-13.7,13.7-13.7h9.1C62.1,72.5,68.2,78.6,68.2,86.2L68.2,86.2z"></path><path d="M40,73c-1.2-0.3-2.4-0.5-3.6-0.5h-9.1c-5.1,0-9.5,2.8-11.9,6.9c-1.7,3,0.6,6.7,4,6.7H30C30,79.9,34.2,74.6,40,73z"></path><path d="M72.8,72.5h-9.1c-1.3,0-2.5,0.2-3.6,0.5c5.8,1.6,10,6.9,10,13.2h10.6c3.5,0,5.7-3.7,4-6.7C82.3,75.3,77.9,72.5,72.8,72.5z"></path></g><g><circle cx="32" cy="63.5" r="8"></circle></g><g><circle cx="68" cy="63.5" r="8"></circle></g><g><path d="M50,19c11.6,0,21,9.4,21,21c0,5-1.8,9.6-4.7,13.2c1.1-0.5,2.4-0.7,3.7-0.7c0.5,0,1.1,0.1,1.6,0.1c2.2-3.7,3.4-8,3.4-12.6   c0-13.8-11.2-25-25-25S25,26.2,25,40c0,4.6,1.3,8.9,3.4,12.6c0.5-0.1,1-0.1,1.6-0.1c1.3,0,2.6,0.3,3.7,0.7C30.8,49.6,29,45,29,40   C29,28.4,38.4,19,50,19z"></path></g><path d="M50,25c-8.3,0-15,6.7-15,15c0,6.9,4.7,12.7,11,14.4c1.2-0.6,2.5-0.9,4-0.9s2.8,0.3,4,0.9c6.3-1.7,11-7.5,11-14.4  C65,31.7,58.3,25,50,25z M50,51c-6.1,0-11-4.9-11-11s4.9-11,11-11s11,4.9,11,11S56.1,51,50,51z"></path><g><circle cx="50" cy="63.5" r="8"></circle></g></svg>