<svg height='300px' width='300px'  fill="#000000" xmlns="http://www.w3.org/2000/svg" xmlns:xlink="http://www.w3.org/1999/xlink" version="1.1" x="0px" y="0px" viewBox="0 0 101 101" enable-background="new 0 0 101 101" xml:space="preserve"><g><g><path d="M85.516,72.144l-0.673-7.824c-0.029-0.338-0.194-0.65-0.459-0.864l-3.16-2.558V55.99c0-0.69-0.56-1.25-1.25-1.25    s-1.25,0.56-1.25,1.25v2.884L56.522,40.906l-2.507-22.023c0-0.971-0.394-1.85-1.029-2.486c-0.347-0.347-0.77-0.611-1.236-0.79    V10.25C51.75,9.56,51.19,9,50.5,9s-1.25,0.56-1.25,1.25v5.356c-0.467,0.179-0.89,0.443-1.236,0.79    c-0.636,0.637-1.029,1.516-1.029,2.486l-2.519,22.124L23.115,59.14V55.99c0-0.69-0.56-1.25-1.25-1.25s-1.25,0.56-1.25,1.25v5.272    l-2.604,2.211c-0.251,0.214-0.407,0.518-0.436,0.846l-0.694,8.045c-0.036,0.414,0.137,0.818,0.46,1.08    c0.323,0.261,0.755,0.344,1.152,0.222L44.1,65.792l0.354,2.913l-11.295,8.61c-0.438,0.334-0.606,0.916-0.413,1.432l1.213,3.243    c0.241,0.647,0.964,0.974,1.608,0.733l10.128-3.786l0.118,0.971c0,1.294,0.524,2.466,1.373,3.314    c0.848,0.849,2.02,1.373,3.314,1.373s2.467-0.524,3.314-1.373c0.849-0.849,1.373-2.021,1.373-3.314l0.118-0.971l10.128,3.786    c0.144,0.054,0.292,0.079,0.438,0.079c0.506,0,0.983-0.31,1.171-0.812l1.213-3.243c0.193-0.516,0.025-1.098-0.413-1.432    l-11.295-8.61l0.36-2.965l27.03,7.931c0.115,0.034,0.233,0.051,0.352,0.051c0.007,0,0.012,0,0.02,0c0.69,0,1.25-0.56,1.25-1.25    C85.559,72.358,85.544,72.248,85.516,72.144z M50.5,25.584c1.381,0,2.5,1.119,2.5,2.5v2.75h-5v-2.75    C48,26.703,49.119,25.584,50.5,25.584z M48,33.334h5v7.001c0,1.381-1.119,2.5-2.5,2.5s-2.5-1.119-2.5-2.5V33.334z M51.75,79.784    c0,0.69-0.56,1.25-1.25,1.25s-1.25-0.56-1.25-1.25V65.867c0-0.69,0.56-1.25,1.25-1.25s1.25,0.56,1.25,1.25V79.784z"></path></g><g><defs><rect id="a" x="117.091" y="-303.423" width="74.283" height="130.067"></rect></defs><clipPath><use xlink:href="#a" overflow="visible"></use></clipPath></g></g></svg>