<svg height='300px' width='300px'  fill="#000000" xmlns="http://www.w3.org/2000/svg" xmlns:xlink="http://www.w3.org/1999/xlink" version="1.1" x="0px" y="0px" viewBox="0 0 67 67" enable-background="new 0 0 67 67" xml:space="preserve"><g><polygon points="23.02193,40.12105 2.52004,60.62295 5.11818,62.93821 25.34768,47.90485 23.02193,45.8201  "></polygon><path d="M50.83669,32.79354l-2.64424-12.84969L34.7412,9.55438H15.18935c0,3.66027,2.96727,6.62754,6.62754,6.62754h12.7665   l3.47158,5.83857L25.11551,38.02716v6.8544l11.85905,10.64869L30.24905,66.5h5.13572l6.61859-8.42691   c0.67151-0.85503,0.76295-2.03002,0.23179-2.97865l-5.44258-9.71975l5.68076-7.73213l5.77871,1.50442l16.88031-2.20918   l0.39413-4.14425H50.83669z"></path><circle cx="56.63879" cy="12.12799" r="7.83552"></circle><path d="M2.52113,27.49458h15.16284c0.57906,0,1.04762-0.46856,1.04762-1.04762c0-0.57906-0.46856-1.04762-1.04762-1.04762H2.52113   c-0.57905,0-1.04762,0.46856-1.04762,1.04762C1.47351,27.02602,1.94207,27.49458,2.52113,27.49458z"></path><path d="M2.52113,33.06721h19.34206c0.57905,0,1.04762-0.46856,1.04762-1.04762c0-0.57905-0.46856-1.04762-1.04762-1.04762H2.52113   c-0.57905,0-1.04762,0.46856-1.04762,1.04762C1.47351,32.59865,1.94207,33.06721,2.52113,33.06721z"></path><path d="M17.68397,38.63882c0.57906,0,1.04762-0.46856,1.04762-1.04762c0-0.57905-0.46856-1.04762-1.04762-1.04762H2.52113   c-0.57905,0-1.04762,0.46857-1.04762,1.04762c0,0.57906,0.46856,1.04762,1.04762,1.04762H17.68397z"></path><path d="M10.58799,17.17595c0.40921,0.40921,1.07216,0.40924,1.4814,0c0.40923-0.40923,0.40923-1.07217,0-1.4814l-0.78367-0.78367   c-0.40923-0.40923-1.07217-0.40923-1.4814,0c-0.40923,0.40923-0.40923,1.07217,0,1.4814L10.58799,17.17595z"></path><path d="M11.05962,20.71576c-0.40923,0.40923-0.40923,1.07217,0,1.4814l0.78367,0.78367c0.40921,0.40921,1.07216,0.40924,1.4814,0   c0.40923-0.40923,0.40923-1.07217,0-1.4814l-0.78367-0.78367C12.1318,20.30653,11.46885,20.30653,11.05962,20.71576z"></path><path d="M4.66752,16.0424c-0.40923,0.40923-0.40923,1.07217,0,1.4814l0.78367,0.78367c0.40921,0.40921,1.07216,0.40924,1.4814,0   c0.40923-0.40923,0.40923-1.07217,0-1.4814L6.14891,16.0424C5.73969,15.63317,5.07674,15.63317,4.66752,16.0424z"></path><path d="M18.64053,22.59001c0.4099,0.40785,1.07318,0.40821,1.48242-0.00102c0.4082-0.41025,0.4082-1.07319-0.00102-1.48242   l-0.78367-0.78264c-0.40923-0.40718-1.07319-0.4082-1.48242,0.00102c-0.4082,0.41025-0.4082,1.07319,0.00102,1.48242   L18.64053,22.59001z"></path><path d="M24.81473,21.09634c0.40923-0.40923,0.40923-1.07217,0-1.4814l-0.78367-0.78367c-0.40923-0.40923-1.07217-0.40923-1.4814,0   c-0.40923,0.40923-0.40923,1.07217,0,1.4814l0.78367,0.78367C23.74254,21.50555,24.40549,21.50558,24.81473,21.09634z"></path><path d="M27.47776,3.07199c0.40922,0.40921,1.07216,0.40924,1.4814,0c0.40923-0.40923,0.40923-1.07217,0-1.4814l-0.78367-0.78367   c-0.40923-0.40923-1.07217-0.40923-1.4814,0s-0.40923,1.07217,0,1.4814L27.47776,3.07199z"></path><path d="M12.23513,3.07199c0.40921,0.40921,1.07216,0.40924,1.4814,0c0.40923-0.40923,0.40923-1.07217,0-1.4814l-0.78367-0.78367   c-0.40923-0.40923-1.07217-0.40923-1.4814,0c-0.40923,0.40923-0.40923,1.07217,0,1.4814L12.23513,3.07199z"></path><path d="M5.05935,6.8604c0.40921,0.40921,1.07216,0.40924,1.4814,0c0.40923-0.40923,0.40923-1.07217,0-1.4814L5.75708,4.59533   c-0.40923-0.40923-1.07217-0.40923-1.4814,0c-0.40923,0.40923-0.40923,1.07217,0,1.4814L5.05935,6.8604z"></path><path d="M19.4242,6.8604c0.40921,0.40921,1.07216,0.40924,1.4814,0c0.40923-0.40923,0.40923-1.07217,0-1.4814l-0.78367-0.78367   c-0.40923-0.40923-1.07217-0.40923-1.4814,0c-0.40923,0.40923-0.40923,1.07217,0,1.4814L19.4242,6.8604z"></path></g></svg>