<svg height='300px' width='300px'  fill="#000000" xmlns="http://www.w3.org/2000/svg" xmlns:xlink="http://www.w3.org/1999/xlink" version="1.1" x="0px" y="0px" viewBox="0 0 24 24" style="enable-background:new 0 0 24 24;" xml:space="preserve"><g><g><g><g><path d="M7.5,4.706c-0.172,0-0.341-0.089-0.433-0.25l-1-1.732C5.929,2.484,6.011,2.179,6.25,2.041      c0.238-0.138,0.545-0.058,0.683,0.183l1,1.732C8.071,4.195,7.989,4.5,7.75,4.639C7.671,4.684,7.585,4.706,7.5,4.706z"></path></g></g><g><g><path d="M17.5,22.026c-0.172,0-0.341-0.089-0.433-0.25l-1-1.732c-0.139-0.239-0.057-0.545,0.183-0.683      c0.238-0.139,0.545-0.057,0.683,0.183l1,1.732c0.139,0.239,0.057,0.545-0.183,0.683C17.671,22.005,17.585,22.026,17.5,22.026z"></path></g></g><g><g><path d="M4.206,8c-0.085,0-0.171-0.021-0.25-0.067l-1.732-1C1.984,6.795,1.902,6.489,2.041,6.25      c0.138-0.239,0.444-0.319,0.683-0.183l1.732,1C4.695,7.205,4.777,7.511,4.639,7.75C4.547,7.91,4.378,8,4.206,8z"></path></g></g><g><g><path d="M21.526,18c-0.085,0-0.171-0.021-0.25-0.067l-1.732-1c-0.239-0.138-0.321-0.444-0.183-0.683      c0.138-0.239,0.444-0.319,0.683-0.183l1.732,1c0.239,0.138,0.321,0.444,0.183,0.683C21.867,17.91,21.698,18,21.526,18z"></path></g></g><g><g><path d="M2.474,18c-0.172,0-0.341-0.09-0.433-0.25c-0.139-0.239-0.057-0.545,0.183-0.683l1.732-1      c0.238-0.137,0.545-0.057,0.683,0.183c0.139,0.239,0.057,0.545-0.183,0.683l-1.732,1C2.645,17.979,2.559,18,2.474,18z"></path></g></g><g><g><path d="M6.5,22.026c-0.085,0-0.171-0.021-0.25-0.067c-0.239-0.138-0.321-0.444-0.183-0.683l1-1.732      c0.137-0.24,0.443-0.32,0.683-0.183c0.239,0.138,0.321,0.444,0.183,0.683l-1,1.732C6.841,21.937,6.672,22.026,6.5,22.026z"></path></g></g><g><g><path d="M3,12.5H1c-0.276,0-0.5-0.224-0.5-0.5s0.224-0.5,0.5-0.5h2c0.276,0,0.5,0.224,0.5,0.5S3.276,12.5,3,12.5z"></path></g></g><g><g><path d="M12,23.5c-0.276,0-0.5-0.224-0.5-0.5v-2c0-0.276,0.224-0.5,0.5-0.5s0.5,0.224,0.5,0.5v2      C12.5,23.276,12.276,23.5,12,23.5z"></path></g></g></g><path d="M22.192,6.693l-2.148,1.24C19.965,7.979,19.879,8,19.794,8c-0.172,0-0.341-0.09-0.433-0.25   c-0.139-0.239-0.057-0.545,0.183-0.683l2.144-1.238c-0.903-1.413-2.104-2.614-3.518-3.517l-1.238,2.144   c-0.092,0.161-0.261,0.25-0.433,0.25c-0.085,0-0.171-0.021-0.25-0.067c-0.239-0.138-0.321-0.444-0.183-0.683l1.24-2.147   C15.718,0.977,13.915,0.5,12,0.5c-0.276,0-0.5,0.224-0.5,0.5v11c0,0.276,0.224,0.5,0.5,0.5h11c0.276,0,0.5-0.224,0.5-0.5   C23.5,10.086,23.023,8.283,22.192,6.693z"></path></g></svg>