<svg height='300px' width='300px'  fill="#000000" xmlns="http://www.w3.org/2000/svg" data-name="Layer 1" viewBox="0 0 64 64" x="0px" y="0px"><title>revolution-fight-brave-rebellion-revolt</title><path d="M22,27.69971a2.37115,2.37115,0,0,0,.71631,1.69238l2.98,2.89014A.99945.99945,0,0,1,26,33v4.9538a17.72822,17.72822,0,0,0,12,0V33a1,1,0,0,1,.68213-.94824A3.38786,3.38786,0,0,0,41,28.83984V22.64893a3.44574,3.44574,0,0,1-4-.70722,3.48269,3.48269,0,0,1-4.99677.00391c-.00946.00964-.01611.02136-.02569.03094l-.00025.00025-.00024.00024a3.50341,3.50341,0,0,1-.44446.36505c-.03094.02222-.05719.05182-.0888.07294a3.459,3.459,0,0,1-1.25379.51788A3.55942,3.55942,0,0,1,29.5,23H27v.57617a2.33894,2.33894,0,0,0,1.14746.51758A6.9752,6.9752,0,0,1,34,31H32a4.98153,4.98153,0,0,0-4.1792-4.93311,4.29557,4.29557,0,0,1-2.35742-1.18945L25.293,24.707A1.00012,1.00012,0,0,1,25,24V22a1,1,0,0,1,1-1h3.5a1.46694,1.46694,0,0,0,1.35419-.86078c.00512-.011.01227-.021.01709-.03216a1.51739,1.51739,0,0,0,.11572-.47266c.00256-.02911.00751-.05756.00842-.087a1.40426,1.40426,0,0,0-.39825-1.00244A1.73459,1.73459,0,0,0,29.34033,18H25.46A3.464,3.464,0,0,0,22,21.46Z"></path><path d="M31,16.40961V11.5a1.5,1.5,0,0,0-3,0V16h1.34033A3.71134,3.71134,0,0,1,31,16.40961Z"></path><path d="M26,16V13.5a1.5,1.5,0,0,0-3,0v3.09216A5.41923,5.41923,0,0,1,25.46,16Z"></path><path d="M36,19.5v-8a1.5,1.5,0,0,0-3,0v8a1.5,1.5,0,0,0,3,0Z"></path><path d="M24,37.10681V33.42334l-2.67627-2.5957A4.38076,4.38076,0,0,1,20,27.69971V21.46a5.42441,5.42441,0,0,1,1-3.13922V13.5a3.47918,3.47918,0,0,1,5.18054-3.05566A3.48849,3.48849,0,0,1,31.97705,9.023c.00977.00976.01636.02179.026.03168a3.48662,3.48662,0,0,1,5.98267,2.3042A3.45784,3.45784,0,0,1,39.5,11,3.50424,3.50424,0,0,1,43,14.5v5a3.45469,3.45469,0,0,1-.05054.5H43v8.83984A5.38372,5.38372,0,0,1,40,33.667v3.43982a18,18,0,1,0-16,0Z"></path><path d="M41,19.5v-5a1.5,1.5,0,0,0-3,0v5a1.5,1.5,0,0,0,3,0Z"></path><path d="M6,58v4H19V57.37952A3.37952,3.37952,0,0,0,15.62048,54a4.00006,4.00006,0,1,0-5.241,0H9L6.29291,51.29291A1,1,0,0,1,6,50.58575V44H2v7.6972a.99947.99947,0,0,0,.168.55469Z"></path><path d="M41,62V57.37952A3.37952,3.37952,0,0,0,37.62048,54a4.00006,4.00006,0,1,0-5.241,0H31l-2.70709-2.70709A1,1,0,0,1,28,50.58575V44H24v7.6972a.99947.99947,0,0,0,.168.55469L28,58v4Z"></path><path d="M58.62048,54a4.00006,4.00006,0,1,0-5.241,0H52l-2.70709-2.70709A1,1,0,0,1,49,50.58575V44H45v7.6972a.99947.99947,0,0,0,.168.55469L49,58v4H62V57.37952A3.37952,3.37952,0,0,0,58.62048,54Z"></path><rect x="58" y="2" width="2" height="2"></rect><rect x="58" y="6" width="2" height="2"></rect><rect x="60" y="4" width="2" height="2"></rect><rect x="56" y="4" width="2" height="2"></rect><rect x="55" y="31" width="2" height="2"></rect><rect x="55" y="35" width="2" height="2"></rect><rect x="57" y="33" width="2" height="2"></rect><rect x="53" y="33" width="2" height="2"></rect><rect x="4" y="2" width="2" height="2"></rect><rect x="4" y="6" width="2" height="2"></rect><rect x="6" y="4" width="2" height="2"></rect><rect x="2" y="4" width="2" height="2"></rect><rect x="7" y="26" width="2" height="2"></rect><rect x="7" y="30" width="2" height="2"></rect><rect x="9" y="28" width="2" height="2"></rect><rect x="5" y="28" width="2" height="2"></rect></svg>