<svg height='300px' width='300px'  fill="#000000" xmlns="http://www.w3.org/2000/svg" xmlns:xlink="http://www.w3.org/1999/xlink" version="1.1" x="0px" y="0px" viewBox="0 0 24 24" style="enable-background:new 0 0 24 24;" xml:space="preserve"><g><g><path d="M8.996,10.224c0.333,0.199,0.697,0.356,1.088,0.478c0.152,0.049,0.306,0.094,0.467,0.131    c0.134,0.029,0.269,0.058,0.409,0.079c0.332,0.052,0.674,0.088,1.04,0.088c0.366,0,0.708-0.036,1.04-0.088    c0.14-0.021,0.275-0.049,0.409-0.079c0.161-0.037,0.315-0.082,0.467-0.131c0.391-0.122,0.755-0.278,1.087-0.477h0.001    C16.595,9.273,17.5,7.474,17.5,5V0.5C17.5,0.224,17.276,0,17,0h-2c-0.276,0-0.5,0.224-0.5,0.5V3h-1V0.5C13.5,0.224,13.276,0,13,0    h-2c-0.276,0-0.5,0.224-0.5,0.5V3h-1V0.5C9.5,0.224,9.276,0,9,0H7C6.724,0,6.5,0.224,6.5,0.5V5    C6.5,7.472,7.405,9.271,8.996,10.224z M12,12c-1.156,0-2.18-0.229-3.06-0.65C8.724,13.783,7.972,16.451,7.479,18h9.041    c-0.493-1.549-1.245-4.217-1.461-6.65C14.18,11.771,13.156,12,12,12z M17,19H7c-1.378,0-2.5,1.122-2.5,2.5v1    C4.5,23.326,5.173,24,6,24h12c0.827,0,1.5-0.673,1.5-1.5v-1C19.5,20.122,18.378,19,17,19z"></path></g></g></svg>