<svg height='300px' width='300px'  fill="#000000" xmlns="http://www.w3.org/2000/svg" xmlns:xlink="http://www.w3.org/1999/xlink" version="1.1" x="0px" y="0px" viewBox="0 0 100 100" enable-background="new 0 0 100 100" xml:space="preserve"><path d="M30.416,13.688c1.372-1.628,1.966-3.467,1.769-5.53c-0.2-2.063-1.082-3.777-2.657-5.155  c-1.571-1.375-3.436-2.016-5.601-1.923c-2.068,0.197-3.779,1.109-5.156,2.728c-1.372,1.62-1.966,3.466-1.769,5.534  c0.098,2.156,0.958,3.897,2.578,5.226c1.625,1.326,3.465,1.945,5.528,1.843C27.27,16.222,29.042,15.311,30.416,13.688z"></path><circle cx="58" cy="76.817" r="1.541"></circle><circle cx="62.59" cy="79.412" r="1.541"></circle><circle cx="69.577" cy="76.817" r="1.54"></circle><circle cx="33.127" cy="78.358" r="1.54"></circle><circle cx="30.533" cy="84.124" r="1.541"></circle><circle cx="25.642" cy="80.951" r="1.541"></circle><circle cx="16.56" cy="78.358" r="1.541"></circle><circle cx="23.147" cy="86.798" r="1.54"></circle><circle cx="17.758" cy="85.257" r="1.54"></circle><path d="M21.655,92.39c0,0.848-0.69,1.54-1.541,1.54s-1.54-0.692-1.54-1.54c0-0.852,0.689-1.54,1.54-1.54  S21.655,91.538,21.655,92.39z"></path><path d="M71.702,82.492c0,0.849-0.69,1.542-1.542,1.542c-0.849,0-1.539-0.693-1.539-1.542c0-0.852,0.69-1.539,1.539-1.539  C71.012,80.953,71.702,81.641,71.702,82.492z"></path><circle cx="59.54" cy="86.798" r="1.54"></circle><circle cx="75.964" cy="88.337" r="1.541"></circle><path d="M72.116,91.989c0,0.849-0.692,1.542-1.541,1.542c-0.85,0-1.542-0.693-1.542-1.542c0-0.852,0.692-1.539,1.542-1.539  C71.424,90.45,72.116,91.138,72.116,91.989z"></path><polygon points="94.23,89.217 86.506,89.217 86.506,86.102 94.23,86.102 94.23,89.217 "></polygon><polygon points="99.68,95.668 86.506,95.668 86.506,92.553 99.68,92.553 99.68,95.668 "></polygon><path d="M17.721,18.142l0.007,0.002c0,0,1.343,2.521,1.034,3.929c-0.313,1.411-1.441,1.775-2.25,1.596l-0.005-0.002  c-0.812-0.178-1.63-0.968-1.317-2.381C15.499,19.88,17.721,18.142,17.721,18.142z"></path><path d="M14.604,14.544l0.002,0.005c0,0-0.877,2.723-2.103,3.481c-1.226,0.758-2.278,0.201-2.708-0.503l-0.01-0.007  c-0.431-0.704-0.428-1.838,0.802-2.594C11.81,14.167,14.604,14.544,14.604,14.544z"></path><path d="M68.109,69.316L57.782,59.253l-10.14-33.715l5.309,3.415l2.948,12.968c0.395,2.063,1.623,3.479,3.684,3.376  c2.26-0.194,3.342-1.696,3.141-4.059c0-0.192-0.046-0.547-0.046-0.655l-3.387-15.03c-0.196-0.684-0.542-1.226-1.029-1.624  L42.778,12.266c-1.463-1.177-3.235-1.719-5.299-1.621c-2.556,0.197-4.572,1.477-6.042,3.834l-7.811,15.331l-10.466,7.218  c-0.987,0.697-1.726,2.189-1.634,3.565c0.288,1.695,2.196,2.844,3.543,2.694c0.932,0.014,1.446-0.201,2.067-0.505l10.906-7.532  c0.549-0.346,1.134-1.072,1.331-1.459l2.949-5.75l3.388,15.331L24.732,57.283c-0.293,0.389-0.496,0.939-0.594,1.62l-1.986,10.413  H9.336v29.617h32.612V69.316h-9.176l1.397-7.46l10.24-11.185l3.32,10.884c0.391,0.889,0.731,1.571,1.029,2.062l5.181,5.698h-3.162  v29.617h32.609V69.316H68.109z M38.677,95.663H12.605V72.586h26.072V95.663z M80.116,95.663h-26.07V72.586h26.07V95.663z"></path></svg>