<svg height='300px' width='300px'  fill="#000000" xmlns="http://www.w3.org/2000/svg" xmlns:xlink="http://www.w3.org/1999/xlink" version="1.1" x="0px" y="0px" viewBox="0 0 96 96" enable-background="new 0 0 96 96" xml:space="preserve"><g><rect x="41.095" y="37.479" fill="#000000" width="34.444" height="21.043"></rect><path fill="#000000" d="M37.964,57.697V38.304c-1.436,1.503-2.785,4.927-2.785,9.697C35.179,52.769,36.528,56.193,37.964,57.697z"></path><polygon fill="#000000" points="78.672,57.219 93,48 78.672,38.782  "></polygon><path fill="#000000" d="M4.566,41.268h20.9c0.865,0,1.566-0.701,1.566-1.565c0-0.865-0.701-1.566-1.566-1.566h-20.9   C3.702,38.137,3,38.838,3,39.703C3,40.567,3.702,41.268,4.566,41.268z"></path><path fill="#000000" d="M25.467,54.733h-20.9C3.702,54.733,3,55.434,3,56.299c0,0.864,0.702,1.564,1.566,1.564h20.9   c0.865,0,1.566-0.7,1.566-1.564C27.033,55.434,26.332,54.733,25.467,54.733z"></path><path fill="#000000" d="M27.646,46.436H16.732c-0.864,0-1.564,0.701-1.564,1.565s0.7,1.565,1.564,1.565h10.913   c0.864,0,1.564-0.701,1.564-1.565S28.51,46.436,27.646,46.436z"></path></g></svg>