<svg height='300px' width='300px'  fill="#000000" xmlns="http://www.w3.org/2000/svg" xmlns:xlink="http://www.w3.org/1999/xlink" version="1.1" x="0px" y="0px" viewBox="0 0 100 100" style="enable-background:new 0 0 100 100;" xml:space="preserve"><g><path d="M63.65,65.34c-1.26,0.04-2.44,0.09-3.36,0.38c-0.85,0.28-1.79,0.92-2.79,1.61c-0.49,0.33-1,0.67-1.53,1L51.6,79.7L58.62,98   c0,0,4.73-7.49,5.41-14.23c5.22,4.49,13.56,6.94,13.56,6.94l-9.92-25.83C66.35,65.24,64.94,65.29,63.65,65.34z"></path><path d="M48.47,69.39c-1.44,0-2.71-0.47-3.88-1.09c-0.29-0.14-0.57-0.31-0.85-0.49h-0.01c-0.29-0.17-0.58-0.36-0.87-0.55   c-0.21-0.14-0.42-0.29-0.62-0.42c-1-0.68-1.95-1.33-2.79-1.61c-0.92-0.29-2.1-0.34-3.36-0.38c-1.49-0.06-3.12-0.11-4.64-0.65   l-9.99,26.02c0,0,8.35-2.46,13.57-6.94c0.67,6.75,5.4,14.23,5.4,14.23l7.02-18.3l0.33-0.86l0.33-0.85l3.37-8.8   C50.57,69.11,49.58,69.39,48.47,69.39z"></path><path d="M50.01,15.19c-10.68,0-19.36,8.68-19.36,19.36c0,10.67,8.68,19.35,19.36,19.35c10.67,0,19.35-8.68,19.35-19.35   C69.36,23.88,60.67,15.19,50.01,15.19z"></path><path d="M79.85,24.85c-0.98-3.02-4.96-4.54-6.79-7.05c-1.85-2.54-2.07-6.79-4.61-8.64c-2.51-1.82-6.62-0.74-9.64-1.72   c-2.6-0.85-5.01-3.59-7.79-4.16c-0.33-0.07-0.67-0.11-1.01-0.11S49.33,3.22,49,3.28c-2.79,0.57-5.2,3.31-7.8,4.16   c-3.02,0.98-7.12-0.1-9.64,1.72c-2.54,1.85-2.76,6.1-4.61,8.64c-1.83,2.51-5.81,4.03-6.79,7.05c-0.95,2.92,1.35,6.47,1.35,9.7   c0,3.23-2.3,6.78-1.35,9.7c0.98,3.02,4.96,4.53,6.79,7.05c1.85,2.54,2.07,6.78,4.61,8.63c0.05,0.04,0.1,0.07,0.16,0.1   c0.18,0.13,0.37,0.24,0.57,0.33c0.19,0.09,0.39,0.17,0.6,0.24c2.48,0.87,5.78,0.24,8.31,1.06c0.81,0.26,1.59,0.7,2.37,1.21   c0.23,0.14,0.45,0.29,0.67,0.44c0.22,0.14,0.44,0.29,0.66,0.44c1.62,1.1,3.27,2.17,5.11,2.17c1.56,0,2.99-0.78,4.39-1.7   c0.31-0.2,0.63-0.41,0.94-0.63c0.28-0.18,0.56-0.37,0.84-0.55c0.87-0.58,1.74-1.09,2.63-1.38c2.32-0.75,5.28-0.29,7.66-0.87   c0.21-0.05,0.42-0.1,0.62-0.18c0.21-0.06,0.41-0.14,0.61-0.24c0.26-0.12,0.51-0.27,0.75-0.44c2.54-1.85,2.76-6.09,4.61-8.63   c1.83-2.52,5.81-4.03,6.79-7.05c0.95-2.92-1.35-6.47-1.35-9.7C78.5,31.33,80.79,27.77,79.85,24.85z M50.01,57.08   c-12.45,0-22.54-10.09-22.54-22.53c0-12.45,10.09-22.54,22.54-22.54c12.44,0,22.53,10.09,22.53,22.54   C72.54,46.99,62.44,57.08,50.01,57.08z"></path></g></svg>