<svg height='300px' width='300px'  fill="#000000" xmlns="http://www.w3.org/2000/svg" viewBox="0 0 100 100" x="0px" y="0px"><title>•SET16-v3</title><path d="M71,43.525v14.32a1.822,1.822,0,0,1-1.823,1.824H65.9v14.5a1.829,1.829,0,0,1-1.823,1.823H59.917v12.54l14.717.053V43.525ZM20.638,88.383l35.837.14V75.994H20.638ZM62.461,59.669H30.668V72.553H62.461ZM49.5,26.646,46.073,37.1a.891.891,0,0,0,1.372,1l8.886-6.486L65.217,38.1a.891.891,0,0,0,1.372-1L63.166,26.646,72.081,20.2a.891.891,0,0,0-.524-1.613l-11,.024L57.178,8.14a.89.89,0,0,0-1.7,0L52.106,18.61l-11-.024a.891.891,0,0,0-.524,1.613ZM32.029,38.961a1.8,1.8,0,0,0,.664.126,1.826,1.826,0,0,0,1.7-1.16l4.89-12.49a1.824,1.824,0,1,0-3.4-1.329L31,36.6A1.823,1.823,0,0,0,32.029,38.961ZM40.58,36.1a1.794,1.794,0,0,0,.606.105,1.825,1.825,0,0,0,1.72-1.218l1.8-5.1a1.823,1.823,0,0,0-3.439-1.213l-1.8,5.1A1.822,1.822,0,0,0,40.58,36.1ZM39.013,56.227H67.556v-12.7H39.013Z"></path></svg>