<svg height='300px' width='300px'  fill="#000000" xmlns="http://www.w3.org/2000/svg" xmlns:xlink="http://www.w3.org/1999/xlink" version="1.1" x="0px" y="0px" viewBox="0 26.167 53.828 73.833" enable-background="new 0 26.167 53.828 73.833" xml:space="preserve"><path fill="none" d="M36.322,42.031h-8.293V31.495c-0.552-0.361-0.989-0.555-1.251-0.555c-0.252,0-0.62,0.145-1.067,0.413v10.679  h-8.259c-0.311,0.752-0.585,1.526-0.812,2.318h9.07v19.139c0.037,0.046,0.081,0.09,0.121,0.134h2.197V44.35h9.111  C36.915,43.558,36.638,42.784,36.322,42.031z"></path><path d="M42.394,86.371c-2.08-0.705-3.917-1.46-5.483-2.142H16.778c-1.566,0.682-3.404,1.437-5.483,2.142  c-2.996,1.016-8.36,2.055-8.327,11.097H50.72C50.754,88.428,45.391,87.387,42.394,86.371z"></path><path d="M34.044,82.951c-1.958-0.875-2.586-3.438-2.059-4.23c0.003-0.005,0.573-0.844,0.576-0.848c0.765-1.03,1.36-2.261,1.78-3.63  c0.376-0.401,0.758-0.895,1.02-1.869c0.26-0.975,0.245-0.913,0.366-1.527c0.122-0.614,0.358-1.623-0.472-1.753  c0.016-0.976-0.03-1.868-0.126-2.687l0.594-1.472c1.47-3.639,2.584-8.354,3.601-12.873c0.688-3.057,0.426-6.302-0.777-9.646  c-0.934-2.593-2.452-5.245-4.392-7.67c-1.199-1.499-2.556-2.898-3.822-3.94c-1.957-1.612-2.966-1.799-3.555-1.799  c-0.561,0-1.499,0.151-3.17,1.461c-1.032,0.807-2.139,1.895-3.203,3.144c-1.436,1.687-3.443,4.435-4.846,7.942  c-1.432,3.579-1.886,7.076-1.351,10.391c0.892,5.52,2.017,9.807,3.438,13.108l0.625,1.449l0.287-0.06  c-0.093,0.809-0.138,1.688-0.124,2.649c-0.828,0.13-0.592,1.139-0.471,1.753c0.121,0.614,0.106,0.553,0.367,1.527  c0.261,0.975,0.644,1.468,1.019,1.869c0.42,1.369,1.015,2.6,1.78,3.63c0.003,0.004,0.574,0.843,0.577,0.848  c0.527,0.793-0.101,3.355-2.06,4.23c-0.347,0.154-0.73,0.328-1.132,0.509h16.663C34.775,83.279,34.39,83.105,34.044,82.951z   M28.028,63.622h-2.197c-0.041-0.044-0.084-0.088-0.121-0.134V44.35h-9.07c0.227-0.792,0.501-1.566,0.812-2.318h8.259V31.353  c0.447-0.269,0.814-0.413,1.067-0.413c0.262,0,0.699,0.194,1.251,0.555v10.537h8.293c0.317,0.752,0.593,1.527,0.817,2.318h-9.111  V63.622z"></path></svg>