<svg height='300px' width='300px'  fill="#000000" xmlns="http://www.w3.org/2000/svg" xmlns:xlink="http://www.w3.org/1999/xlink" xml:space="preserve" version="1.1" style="shape-rendering:geometricPrecision;text-rendering:geometricPrecision;image-rendering:optimizeQuality;" viewBox="0 0 847 847" x="0px" y="0px" fill-rule="evenodd" clip-rule="evenodd"><defs><style type="text/css">
   
    .fil0 {fill:#000000}
   
  </style></defs><g><path class="fil0" d="M423 25c221,0 399,178 399,398 0,221 -178,399 -399,399 -220,0 -398,-178 -398,-399 0,-220 178,-398 398,-398zm-155 260l310 0c14,0 24,11 24,24l0 57c0,13 -10,23 -24,23l-310 0c-13,0 -24,-10 -24,-23l0 -57c0,-13 11,-24 24,-24zm0 172l310 0c14,0 24,11 24,24l0 57c0,13 -10,23 -24,23l-310 0c-13,0 -24,-10 -24,-23l0 -57c0,-13 11,-24 24,-24z"></path></g></svg>