<svg height='300px' width='300px'  fill="#000000" xmlns="http://www.w3.org/2000/svg" xmlns:xlink="http://www.w3.org/1999/xlink" version="1.1" x="0px" y="0px" viewBox="0 0 144.083 144" enable-background="new 0 0 144.083 144" xml:space="preserve"><path d="M62.192,102.24l-1.896,5.691c3.775,1.259,7.727,1.897,11.746,1.898c3.988,0,7.917-0.631,11.673-1.875l-1.887-5.695  C75.508,104.352,68.495,104.339,62.192,102.24z"></path><path d="M40.949,71.625l-5.996-0.205c-0.015,0.436-0.022,0.868-0.022,1.3c0,7.615,2.29,14.935,6.624,21.166l4.926-3.426  c-3.631-5.221-5.55-11.355-5.55-17.74C40.93,72.356,40.936,71.992,40.949,71.625z"></path><path d="M97.567,90.512l4.918,3.436c4.363-6.245,6.668-13.585,6.668-21.228c0-0.407-0.008-0.817-0.021-1.229l-5.996,0.201  c0.012,0.345,0.018,0.687,0.018,1.027C103.153,79.127,101.221,85.279,97.567,90.512z"></path><path d="M115.715,43.06c1.463-0.776,2.021-2.593,1.244-4.057l-5.66-10.671c-0.373-0.702-1.01-1.229-1.77-1.462  c-0.76-0.231-1.582-0.154-2.287,0.218l-21.91,11.624c-0.703,0.373-1.229,1.01-1.463,1.771c-0.232,0.761-0.154,1.583,0.219,2.286  l4.174,7.862c0.076,0.291,0.188,0.574,0.354,0.836c0.324,0.515,0.619,1.043,0.922,1.567l0.215,0.404  c0.033,0.064,0.086,0.111,0.125,0.172c3.432,6.132,5.381,12.82,5.381,18.679c0,12.801-10.416,23.215-23.216,23.215  c-12.803,0-23.217-10.414-23.217-23.215c0-5.858,1.949-12.547,5.381-18.679c0.037-0.061,0.09-0.107,0.125-0.172l0.215-0.404  c0.303-0.524,0.596-1.053,0.922-1.567c0.166-0.262,0.275-0.545,0.354-0.836l4.172-7.862c0.373-0.703,0.453-1.525,0.219-2.286  c-0.232-0.761-0.758-1.397-1.461-1.771L36.839,27.088c-0.705-0.373-1.526-0.45-2.286-0.218c-0.761,0.233-1.397,0.76-1.771,1.462  l-5.66,10.671c-0.776,1.464-0.219,3.28,1.244,4.057l5.329,2.827c-4.207,8.537-6.628,17.87-6.628,26.402  c0,24.798,20.175,44.973,44.974,44.973c24.798,0,44.972-20.175,44.972-44.973c0-8.531-2.42-17.864-6.629-26.401L115.715,43.06z   M111.014,72.289c0,21.489-17.482,38.973-38.972,38.973c-21.491,0-38.974-17.483-38.974-38.973c0-7.601,2.157-15.936,5.915-23.597  l8.638,4.582c-3.071,6.295-4.796,12.995-4.796,19.015c0,16.109,13.106,29.215,29.217,29.215c16.109,0,29.216-13.105,29.216-29.215  c0-6.02-1.727-12.72-4.797-19.015l8.637-4.582C108.856,56.354,111.014,64.688,111.014,72.289z"></path></svg>