<?xml version="1.0" encoding="UTF-8"?>
<svg width="752pt" height="752pt" version="1.1" viewBox="0 0 752 752" xmlns="http://www.w3.org/2000/svg">
 <defs>
  <clipPath id="a">
   <path d="m139.21 155h473.58v443h-473.58z"/>
  </clipPath>
 </defs>
 <g clip-path="url(#a)">
  <path d="m298.19 389.75c11.184 28.039 27.973 53.5 49.332 74.828l55.66 55.66c8.7266 8.7461 20.578 13.648 32.93 13.625h66.176v-31.57h-66.176v-0.003907c-3.9766-0.015624-7.793-1.5898-10.621-4.3867l-55.629-55.645-0.003906-0.003906c-18.34-18.301-32.75-40.152-42.352-64.215-11.18-28.043-27.965-53.504-49.332-74.828l-53.5-53.496 56.609-56.609c8.4141-8.4453 23.141-8.4453 31.57 0l13.781 13.797-6.4414 22.055 0.003907-0.003906c-2.3945 8.1562-2.5469 16.809-0.44531 25.043 2.1016 8.2344 6.3828 15.754 12.395 21.766l16.797 16.797 22.32-22.324-16.781-16.781c-2.0078-2.0039-3.4375-4.5078-4.1367-7.2578-0.70312-2.7461-0.65625-5.6328 0.14453-8.3516l11.715-40.035-27.027-27.027c-20.348-20.348-55.883-20.348-76.215 0l-78.93 78.93 75.805 75.82v0.003906c18.344 18.297 32.758 40.148 42.352 64.215zm-111.61 207.27h110.5v-31.57h-110.52v31.57zm-47.359-63.145h110.5v-31.57h-110.52v31.57zm473.58-15.535v31.309c0 26.109-21.266 47.359-47.359 47.359h-134.59v-0.003906c-29.223 0.070313-57.258-11.539-77.875-32.25l-196.06-196.09c-11.316-11.34-17.676-26.707-17.676-42.73 0-16.023 6.3594-31.395 17.676-42.734l22.305 22.32h0.003907c-5.4102 5.418-8.4492 12.758-8.4492 20.414 0 7.6523 3.0391 14.992 8.4492 20.41l196.08 196.09c14.711 14.773 34.715 23.055 55.566 23h134.56c8.6992 0 15.785-7.0703 15.785-15.785v-31.305c-0.003906-5.0273-2.4102-9.75-6.4727-12.707l-78.488-57.098-11.27-45.039-77.539 19.387-7.6562-30.625 77.559-19.387-8.1445-32.52-77.539 19.387-7.6562-30.625 77.559-19.387-14.301-57.129h-0.011719c-0.98828-4.0742-3.5703-7.582-7.1641-9.7422-3.5938-2.1562-7.9062-2.7891-11.969-1.75l-23.426 5.8555-7.6406-30.625 23.41-5.8398c12.184-3.0898 25.094-1.1719 35.852 5.3203 10.785 6.4453 18.555 16.93 21.578 29.125l46.207 184.81 69.207 50.359v-0.003906c12.215 8.9023 19.453 23.102 19.48 38.219z" fill-rule="evenodd"/>
 </g>
</svg>
