<svg height='300px' width='300px'  fill="#000000" xmlns="http://www.w3.org/2000/svg" xmlns:xlink="http://www.w3.org/1999/xlink" version="1.1" x="0px" y="0px" viewBox="0 0 50 50" enable-background="new 0 0 50 50" xml:space="preserve"><g><path d="M48.04,24.04H25.96V1.96C25.96,1.429,25.531,1,25,1s-0.96,0.429-0.96,0.96v22.08H1.96C1.429,24.04,1,24.469,1,25   s0.429,0.96,0.96,0.96h22.08v22.08c0,0.531,0.429,0.96,0.96,0.96s0.96-0.429,0.96-0.96V25.96h22.08c0.531,0,0.96-0.429,0.96-0.96   S48.571,24.04,48.04,24.04z"></path><path d="M15.428,22.044c0.98-3.15,3.46-5.64,6.61-6.61v-3.97c-5.27,1.15-9.42,5.31-10.57,10.58H15.428z"></path><path d="M34.578,22.044h3.96c-1.15-5.27-5.31-9.43-10.58-10.58v3.96C31.108,16.404,33.598,18.894,34.578,22.044z"></path><path d="M15.438,27.964h-3.97c1.15,5.26,5.3,9.42,10.57,10.57v-3.97C18.898,33.594,16.408,31.104,15.438,27.964z"></path><path d="M34.568,27.964c-0.98,3.15-3.47,5.63-6.61,6.61v3.96c5.27-1.15,9.43-5.31,10.58-10.57H34.568z"></path><path d="M42.818,22.044h3.89c-1.32-9.72-9.03-17.44-18.75-18.76v3.89C35.558,8.424,41.568,14.444,42.818,22.044z"></path><path d="M7.178,27.964h-3.89c1.32,9.72,9.03,17.43,18.75,18.75v-3.89C14.448,41.574,8.428,35.554,7.178,27.964z"></path><path d="M27.958,42.824v3.89c9.72-1.32,17.43-9.03,18.75-18.75h-3.89C41.568,35.554,35.558,41.574,27.958,42.824z"></path><path d="M22.038,7.174v-3.89c-9.72,1.32-17.43,9.04-18.75,18.76h3.89C8.428,14.444,14.448,8.424,22.038,7.174z"></path></g></svg>