<svg height='300px' width='300px'  fill="#000000" xmlns="http://www.w3.org/2000/svg" xmlns:xlink="http://www.w3.org/1999/xlink" viewBox="0 0 63 67" version="1.1" x="0px" y="0px"><title>slingshot, elastic, fly, strap, pull, weapon</title><desc>Created with Sketch.</desc><g stroke="none" stroke-width="1" fill="none" fill-rule="evenodd"><g transform="translate(-181.000000, -656.000000)" fill="#000000" fill-rule="nonzero"><path d="M181.932974,678.567752 C180.514844,676.87388 180.738376,674.351104 182.432248,672.932974 C184.12612,671.514844 186.648896,671.738376 188.067026,673.432248 L189.379567,675 L194.170294,675 C196.397969,675 198.442271,673.76579 199.479803,671.794479 L203.856081,663.47955 C206.276989,658.879825 211.047026,656 216.244936,656 L231.000151,656 C238.179852,656 244.000151,661.820298 244.000151,669 C244.000151,676.179702 238.179852,682 231.000151,682 L221.193506,682 L207.000151,698.953115 L207.000151,719 C207.000151,721.209139 205.20929,723 203.000151,723 C200.791012,723 199.000151,721.209139 199.000151,719 L199.000151,698.953475 L181.932974,678.567752 Z M203,691.268793 L217.932974,673.432248 C219.351104,671.738376 221.87388,671.514844 223.567752,672.932974 C225.081015,674.199897 225.420772,676.348459 224.464865,678 L231.000151,678 C235.970713,678 240.000151,673.970563 240.000151,669 C240.000151,664.029437 235.970713,660 231.000151,660 L216.244936,660 C212.532143,660 209.124974,662.057018 207.395754,665.342536 L203.019476,673.657464 C201.290256,676.942983 197.883086,679 194.170294,679 L192.728416,679 L203,691.268793 Z"></path></g></g></svg>