<svg height='300px' width='300px'  fill="#000000" xmlns="http://www.w3.org/2000/svg" xmlns:xlink="http://www.w3.org/1999/xlink" version="1.1" x="0px" y="0px" viewBox="0 0 100 100" enable-background="new 0 0 100 100" xml:space="preserve"><g><path d="M-38.1,42L-38.1,42c10.1-5,17.1-15.3,17.1-27.4V8.9c0.7-0.3,1.4-0.9,1.4-2.3V4.2c0,0,0-2.5-2.5-2.5h-58.5   c0,0-2.5,0-2.5,2.5v2.4c0,0,0,1.7,1.4,2.3v5.7c0,12,7,22.4,17.1,27.3v0c3.6,2,5.9,4.8,5.9,8h0c0,3.1-2.3,6-5.9,8v0   c-10.1,4.9-17.1,15.3-17.1,27.3v5.8c-0.7,0.3-1.4,0.9-1.4,2.3v2.4c0,0,0,2.5,2.5,2.5h58.5c0,0,2.5,0,2.5-2.5v-2.4   c0,0,0-1.7-1.4-2.3v-5.7c0-12-7-22.4-17.1-27.3v0c-3.6-2-5.9-4.8-5.9-8h0C-44,46.9-41.7,44-38.1,42z M-47.5,50   c0,3.7,2.1,7.3,5.9,9.9l1.9,1.2c9.4,4.5,15.2,13.8,15.2,24.2v2.5h-53.8v-2.5c0-10.4,5.8-19.7,15.2-24.2l1.9-1.2   c3.8-2.6,5.9-6.2,5.9-9.9h0c0-3.7-2.1-7.3-5.9-9.9l-1.9-1.2c-9.4-4.5-15.2-13.8-15.2-24.2v-2.5h53.8v2.5c0,10.4-5.8,19.7-15.2,24.2   l-1.9,1.2C-45.3,42.7-47.5,46.3-47.5,50L-47.5,50z"></path><path fill="#000000" d="M-34.5,85.6c0,0-3.9-3.2-6.2-4.3l-0.1-0.1l-0.1-0.1l-1.9-1.2l0,0l0,0c-2.2-1.5-3.9-3.4-5.1-5.3   c0,0,0,0,0-0.1c-2.9-4.9-5.6-1.4-6.4-0.1c0,0.1-0.1,0.1-0.1,0.1c0,0.1-0.1,0.1-0.1,0.2c0,0,0,0,0,0c-1.2,1.9-2.9,3.7-5,5.1l0,0l0,0   l-1.9,1.2l-0.1,0.1l-0.1,0.1c-2.3,1.1-6.2,4.3-6.2,4.3H-34.5z"></path><path fill="#000000" d="M-51.3,57.4c-0.7,0-1.2,0.5-1.2,1.2c0,0.7,0.5,1.2,1.2,1.2c0.7,0,1.2-0.5,1.2-1.2   C-50.1,57.9-50.7,57.4-51.3,57.4"></path><path fill="#000000" d="M-50.8,53.4c-0.7,0-1.2,0.5-1.2,1.2c0,0.7,0.5,1.2,1.2,1.2c0.7,0,1.2-0.5,1.2-1.2   C-49.6,53.9-50.2,53.4-50.8,53.4"></path><path fill="#000000" d="M-52.9,50.4c-0.7,0-1.2,0.5-1.2,1.2c0,0.7,0.5,1.2,1.2,1.2c0.7,0,1.2-0.5,1.2-1.2   C-51.7,50.9-52.2,50.4-52.9,50.4"></path><path fill="#000000" d="M-49.4,48.5c-0.7,0-1.2,0.5-1.2,1.2c0,0.7,0.5,1.2,1.2,1.2c0.7,0,1.2-0.5,1.2-1.2   C-48.2,49-48.7,48.5-49.4,48.5"></path><path fill="#000000" d="M-75.4,19.1c1.2,7.8,6.2,14.5,13.4,18.1l0.1,0.1l0.1,0.1l1.9,1.2l0,0l0,0c2.2,1.5,3.9,3.4,5.1,5.3   c0,0,0,0,0,0.1c2.9,4.9,5.6,1.4,6.4,0.1c0-0.1,0.1-0.1,0.1-0.1c0-0.1,0.1-0.1,0.1-0.2c0,0,0,0,0,0c1.2-1.9,2.9-3.7,5-5.1l0,0l0,0   l1.9-1.2l0.1-0.1l0.1-0.1c7.3-3.5,12.2-10.3,13.4-18.1H-75.4z"></path></g><g><path d="M63.3,42L63.3,42c10.1-5,17.1-15.3,17.1-27.4V8.9C81,8.6,81.8,8,81.8,6.6V4.2c0,0,0-2.5-2.5-2.5H20.8c0,0-2.5,0-2.5,2.5   v2.4c0,0,0,1.7,1.4,2.3v5.7c0,12,7,22.4,17.1,27.3v0c3.6,2,5.9,4.8,5.9,8h0c0,3.1-2.3,6-5.9,8v0c-10.1,4.9-17.1,15.3-17.1,27.3v5.8   c-0.7,0.3-1.4,0.9-1.4,2.3v2.4c0,0,0,2.5,2.5,2.5h58.5c0,0,2.5,0,2.5-2.5v-2.4c0,0,0-1.7-1.4-2.3v-5.7c0-12-7-22.4-17.1-27.3v0   c-3.6-2-5.9-4.8-5.9-8h0C57.3,46.9,59.6,44,63.3,42z M53.9,50c0,3.7,2.1,7.3,5.9,9.9l1.9,1.2c9.4,4.5,15.2,13.8,15.2,24.2v2.5H23.1   v-2.5c0-10.4,5.8-19.7,15.2-24.2l1.9-1.2c3.8-2.6,5.9-6.2,5.9-9.9h0c0-3.7-2.1-7.3-5.9-9.9l-1.9-1.2C28.9,34.3,23.1,25,23.1,14.6   v-2.5h53.8v2.5c0,10.4-5.8,19.7-15.2,24.2l-1.9,1.2C56,42.7,53.9,46.3,53.9,50L53.9,50z"></path><path fill="#000000" d="M73.5,85.4c-1.9-6.5-6.4-12-12.8-15.1l-0.1-0.1l-0.1-0.1L58.5,69l0,0l0,0c-2.2-1.5-3.9-3.4-5.1-5.3   c0,0,0,0,0-0.1c-2.9-4.9-5.6-1.4-6.4-0.1c0,0.1-0.1,0.1-0.1,0.1c0,0.1-0.1,0.1-0.1,0.2c0,0,0,0,0,0c-1.2,1.9-2.9,3.7-5,5.1l0,0l0,0   l-1.9,1.2l-0.1,0.1l-0.1,0.1c-6.3,3.1-10.9,8.6-12.8,15.1H73.5z"></path><path fill="#000000" d="M33.1,32.2c1.9,1.8,3.9,3.2,6.2,4.3l0.1,0.1l0.1,0.1l1.9,1.2l0,0l0,0c2.2,1.5,3.9,3.4,5.1,5.3   c0,0,0,0,0,0.1c2.9,4.9,5.6,1.4,6.4,0.1c0-0.1,0.1-0.1,0.1-0.1c0-0.1,0.1-0.1,0.1-0.2c0,0,0,0,0,0c1.2-1.9,2.9-3.7,5-5.1l0,0l0,0   l1.9-1.2l0.1-0.1l0.1-0.1c2.3-1.1,4.6-2.7,6.2-4.3C56.6,35.5,42,29,33.1,32.2"></path><path fill="#000000" d="M50,50.2c0.7,0,1.2-0.5,1.2-1.2c0-0.7-0.5-1.2-1.2-1.2c-0.7,0-1.2,0.5-1.2,1.2C48.8,49.6,49.3,50.2,50,50.2   "></path><path fill="#000000" d="M49.5,54.2c0.7,0,1.2-0.5,1.2-1.2c0-0.7-0.5-1.2-1.2-1.2c-0.7,0-1.2,0.5-1.2,1.2   C48.3,53.6,48.8,54.2,49.5,54.2"></path><path fill="#000000" d="M51.6,57.1c0.7,0,1.2-0.5,1.2-1.2c0-0.7-0.5-1.2-1.2-1.2c-0.7,0-1.2,0.5-1.2,1.2   C50.4,56.6,50.9,57.1,51.6,57.1"></path><path fill="#000000" d="M48.1,59c0.7,0,1.2-0.5,1.2-1.2c0-0.7-0.5-1.2-1.2-1.2s-1.2,0.5-1.2,1.2C46.9,58.5,47.4,59,48.1,59"></path></g></svg>